<?xml version="1.0" encoding="utf-8"?>
<!-- Generator: Adobe Illustrator 18.1.0, SVG Export Plug-In . SVG Version: 6.00 Build 0)  -->
<svg version="1.1" id="Layer_1" xmlns="http://www.w3.org/2000/svg" xmlns:xlink="http://www.w3.org/1999/xlink" x="0px" y="0px"
	 viewBox="0 0 1700.91 227.3" enable-background="new 0 0 1700.91 227.3" xml:space="preserve">
<g>
	<g>
		<path fill="#FFFFFF" d="M127.92,100.24c12.21,13.28,17.78,29.14,17.78,52.07c0,19.71-4.29,35.57-13.07,47.78
			c-12.86,17.57-33.86,27.21-59.57,27.21c-22.71,0-41.36-7.28-54.64-21.21C5.57,192.38,0,175.88,0,151.24
			c0-23.57,7.5-42.64,21.64-55.28c13.5-11.78,30.21-17.57,50.78-17.57C95.99,78.38,113.99,85.45,127.92,100.24z M30,114.81
			c-5.57,8.79-9,22.71-9,36.43c0,16.28,3.86,30.64,10.71,40.5c8.79,12.21,24.43,19.71,41.57,19.71c31.93,0,51.43-22.93,51.43-60
			c0-15-3.21-27.86-9.21-36.85c-8.36-12.64-24.64-20.36-42.85-20.36C54,94.24,38.35,101.74,30,114.81z"/>
		<path fill="#FFFFFF" d="M189.2,146.74c2.14-14.78,14.78-24.86,31.71-24.86c3,0,5.36,0.43,8.36,1.07v16.07
			c-3.64-2.57-5.57-3.21-9.86-3.21c-7.71,0-15,3-20.14,8.36c-6.43,6.43-9.43,15.86-9.43,28.71v38.14h21.86v13.29h-58.28v-13.29
			h18.43v-73.28h-18.43v-13.28h35.78V146.74z"/>
		<path fill="#FFFFFF" d="M328.05,191.09c-2.14,22.28-18.64,35.78-43.93,35.78c-30.86,0-51-20.78-51-52.93
			c0-31.28,19.5-52.07,48.64-52.07c15.64,0,27.43,6.64,31.5,17.57v-15h14.36v37.71h-14.36c-2.36-17.36-12.21-26.35-28.71-26.35
			c-19.71,0-32.57,15-32.57,37.93c0,23.57,13.07,39.21,33,39.21c14.78,0,24.43-7.93,27-21.86H328.05z"/>
		<path fill="#FFFFFF" d="M368.76,140.74c4.71-12.43,16.07-18.86,33.86-18.86c22.71,0,36,11.14,36,30.21v58.92h18.21v13.29h-54.43
			v-13.29h18.21v-51.43c0-16.71-6.64-23.78-22.07-23.78c-18.64,0-29.78,11.79-29.78,31.5v43.71h18.43v13.29h-54.64v-13.29h18.21
			V94.67h-18.21V81.38h36.21V140.74z"/>
		<path fill="#FFFFFF" d="M466.26,153.17c2.57-21.43,16.28-31.28,43.93-31.28c15.86,0,27.21,3.43,34.07,10.29
			c6.21,6.21,8.14,13.07,8.14,28.28v50.57h18.21v13.29h-34.07v-20.78c-5.79,16.28-17.36,23.36-37.28,23.36
			c-23.14,0-36.64-11.14-36.64-30.43c0-13.07,6.21-22.5,18-27.86c7.29-3.21,18.43-4.71,35.78-4.71c2.57,0,7.07,0,18.64,0.43v-4.28
			c0.21-10.71-1.29-15-5.79-18.86c-4.07-3.64-10.5-5.36-18.86-5.36c-15.86,0-24.43,6-25.5,17.36H466.26z M517.69,176.73
			c-15.21,0-23.14,1.5-28.71,5.14c-4.71,3-7.5,8.14-7.5,13.93c0,10.5,8.14,17.14,21,17.14c11.14,0,20.36-3.86,25.93-11.14
			c4.07-5.36,5.79-10.93,7.07-24.64C529.26,176.73,525.19,176.73,517.69,176.73z"/>
		<path fill="#FFFFFF" d="M606.83,146.74c2.14-14.78,14.78-24.86,31.71-24.86c3,0,5.36,0.43,8.36,1.07v16.07
			c-3.64-2.57-5.57-3.21-9.86-3.21c-7.71,0-15,3-20.14,8.36c-6.43,6.43-9.43,15.86-9.43,28.71v38.14h21.86v13.29h-58.28v-13.29
			h18.43v-73.28h-18.43v-13.28h35.78V146.74z"/>
		<path fill="#FFFFFF" d="M735.61,94.67h-18.64V81.38h36.64v129.63h18v13.29h-35.36v-20.36c-3.86,13.5-18.64,22.93-36.64,22.93
			c-30.64,0-48.64-19.28-48.64-52.07c0-33,18-52.92,47.78-52.92c18,0,31.71,7.71,36.85,20.57V94.67z M669.61,173.74
			c0,24.21,12.64,39.21,33.21,39.21c20.14,0,33.43-15,33.43-37.93c0-24.21-12.64-39.21-33.21-39.21
			C682.68,135.81,669.61,150.59,669.61,173.74z"/>
		<path fill="#FFFFFF" d="M866.1,210.16h20.79v14.14h-62.14v-14.14h22.29V95.53h-22.29V81.38h70.28c19.28,0,30.64,3,39,10.29
			c7.28,6.64,10.93,15.64,10.93,27.43c0,21.86-11.57,34.93-32.78,37.07c12.64,1.29,18.86,6.86,22.71,20.36l10.93,33.64h16.5v14.14
			h-32.14l-13.93-44.57c-4.71-13.5-10.93-17.57-26.36-17.57H866.1V210.16z M889.46,147.81c24.64,0,36-8.36,36-26.36
			c0-17.36-9.86-25.93-29.78-25.93H866.1v52.28H889.46z"/>
		<path fill="#FFFFFF" d="M1066.02,193.45c-0.86,5.36-2.57,10.29-5.79,15c-8.36,12.21-22.07,18.43-41.35,18.43
			c-20.78,0-34.07-6-43.71-19.71c-6.21-9-9.21-19.07-9.21-31.5c0-33.64,19.5-53.78,51.85-53.78c25.28,0,41.35,11.14,47.14,32.14
			c2.14,7.93,2.57,12,2.57,24.64h-83.14c0.64,20.78,14.36,34.28,35.36,34.28c15.86,0,27.21-7.29,30-19.5H1066.02z M1049.09,165.38
			c-1.07-18.43-12.64-29.57-31.07-29.57c-18.21,0-30.43,10.93-33,29.57H1049.09z"/>
		<path fill="#FFFFFF" d="M1150.23,124.45h14.36v32.57h-14.36c0-13.5-10.07-21.21-27.64-21.21c-14.36,0-23.78,5.79-23.78,14.78
			c0,8.14,4.29,11.36,18,13.28l13.28,1.93c13.71,2.14,20.14,4.07,25.71,8.14c6.43,4.71,10.07,12.21,10.07,21.21
			c0,19.5-15.43,31.71-40.07,31.71c-16.71,0-25.93-4.71-32.14-16.5v13.93h-14.36v-34.5h14.36c0.64,13.93,12.21,23.14,28.5,23.14
			c14.78,0,25.07-6.64,25.07-16.07c0-4.71-1.93-8.57-5.36-10.71c-3.21-2.14-7.71-3.21-17.57-4.5l-12.43-1.5
			c-12.21-1.71-19.07-4.07-24-8.36c-4.93-4.29-7.71-11.57-7.71-19.5c0-10.5,4.28-18,13.07-23.36c7.71-4.71,16.5-7.07,27-7.07
			c15.21,0,24,4.5,30,15.21V124.45z"/>
		<path fill="#FFFFFF" d="M1277.08,193.45c-0.86,5.36-2.57,10.29-5.79,15c-8.36,12.21-22.07,18.43-41.35,18.43
			c-20.78,0-34.07-6-43.71-19.71c-6.21-9-9.21-19.07-9.21-31.5c0-33.64,19.5-53.78,51.85-53.78c25.28,0,41.35,11.14,47.14,32.14
			c2.14,7.93,2.57,12,2.57,24.64h-83.14c0.64,20.78,14.36,34.28,35.36,34.28c15.86,0,27.21-7.29,30-19.5H1277.08z M1260.15,165.38
			c-1.07-18.43-12.64-29.57-31.07-29.57c-18.21,0-30.43,10.93-33,29.57H1260.15z"/>
		<path fill="#FFFFFF" d="M1292.72,153.17c2.57-21.43,16.28-31.28,43.93-31.28c15.86,0,27.21,3.43,34.07,10.29
			c6.21,6.21,8.14,13.07,8.14,28.28v50.57h18.21v13.29h-34.07v-20.78c-5.79,16.28-17.36,23.36-37.28,23.36
			c-23.14,0-36.64-11.14-36.64-30.43c0-13.07,6.21-22.5,18-27.86c7.29-3.21,18.43-4.71,35.78-4.71c2.57,0,7.07,0,18.64,0.43v-4.28
			c0.21-10.71-1.29-15-5.79-18.86c-4.07-3.64-10.5-5.36-18.86-5.36c-15.86,0-24.43,6-25.5,17.36H1292.72z M1344.15,176.73
			c-15.21,0-23.14,1.5-28.71,5.14c-4.71,3-7.5,8.14-7.5,13.93c0,10.5,8.14,17.14,21,17.14c11.14,0,20.35-3.86,25.93-11.14
			c4.07-5.36,5.79-10.93,7.07-24.64C1355.72,176.73,1351.65,176.73,1344.15,176.73z"/>
		<path fill="#FFFFFF" d="M1433.29,146.74c2.14-14.78,14.78-24.86,31.71-24.86c3,0,5.36,0.43,8.36,1.07v16.07
			c-3.64-2.57-5.57-3.21-9.86-3.21c-7.71,0-15,3-20.14,8.36c-6.43,6.43-9.43,15.86-9.43,28.71v38.14h21.86v13.29h-58.28v-13.29
			h18.43v-73.28h-18.43v-13.28h35.78V146.74z"/>
		<path fill="#FFFFFF" d="M1572.14,191.09c-2.14,22.28-18.64,35.78-43.93,35.78c-30.86,0-51-20.78-51-52.93
			c0-31.28,19.5-52.07,48.64-52.07c15.64,0,27.43,6.64,31.5,17.57v-15h14.36v37.71h-14.36c-2.36-17.36-12.21-26.35-28.71-26.35
			c-19.71,0-32.57,15-32.57,37.93c0,23.57,13.07,39.21,33,39.21c14.79,0,24.43-7.93,27-21.86H1572.14z"/>
		<path fill="#FFFFFF" d="M1612.85,140.74c4.71-12.43,16.07-18.86,33.86-18.86c22.71,0,36,11.14,36,30.21v58.92h18.21v13.29h-54.42
			v-13.29h18.21v-51.43c0-16.71-6.64-23.78-22.07-23.78c-18.64,0-29.78,11.79-29.78,31.5v43.71h18.43v13.29h-54.64v-13.29h18.21
			V94.67h-18.21V81.38h36.21V140.74z"/>
	</g>
	<g id="layer1" transform="translate(-627.42315,-376.52517)">
		<g id="g132" transform="matrix(1.2500001,0,0,1.2500001,626.95511,376.52517)">
			<path id="path134" fill="#92C83E" d="M201.06,96.71c-7.13-0.51-10.86-3.08-12.77-5.93c0.37-6.94,1.43-15.59,4.42-23.44
				c1.71-4.49,4.14-8.56,7.13-11.55c3.26-3.57,6.27-6.31,9.31-8.57c5.99-4.44,11.25-6.37,12.91-7.05c1.68-0.65,4.7-1.87,8.35-3.23
				c3.64-1.25,8.05-3.05,11.81-5.25c7.71-4.22,14.11-8.98,14.1-8.98c0.01,0-6.82,3.79-14.76,6.93c-4.01,1.71-8.1,2.83-11.92,3.72
				c-3.76,0.97-6.94,1.95-8.69,2.63c-3.27,1.37-22.87,7.64-32.87,28.65c-2.26,5.37-3.68,10.92-4.6,16.13
				c-2.26-1.28-5.08-3.75-5.85-8.32c-1.34-7.97-0.59-31.88,21.08-45.17c21.67-13.28,45.87-10.63,57.45-14.52
				C267.71,8.86,272.31,0,272.31,0S262.66,90.16,201.06,96.71z"/>
		</g>
	</g>
</g>
</svg>
